<svg xmlns="http://www.w3.org/2000/svg" xmlns:xlink="http://www.w3.org/1999/xlink" width="118" zoomAndPan="magnify" viewBox="0 0 88.5 34.499999" height="46" preserveAspectRatio="xMidYMid meet" version="1.0"><defs><g/><clipPath id="b6e30c02e6"><path d="M 0.386719 0 L 21 0 L 21 17 L 0.386719 17 Z M 0.386719 0 " clip-rule="nonzero"/></clipPath></defs><g clip-path="url(#b6e30c02e6)"><path stroke-linecap="round" transform="matrix(0.27028, -0.20153, 0.20058, 0.269007, 1.973597, 14.482723)" fill="none" stroke-linejoin="miter" d="M 0.5 0.00317838 L 62.204272 -0.00516583 " stroke="#ffffff" stroke-width="1" stroke-opacity="1" stroke-miterlimit="4"/></g><path stroke-linecap="round" transform="matrix(-0.272686, -0.200121, 0.198532, -0.270522, 35.638668, 14.273658)" fill="none" stroke-linejoin="miter" d="M 0.499244 0.00692646 L 62.009067 0.00399869 " stroke="#ffffff" stroke-width="1" stroke-opacity="1" stroke-miterlimit="4"/><path stroke-linecap="round" transform="matrix(0.000000000000000616, -0.335364, 0.335555, 0.000000000000000617, 2.104897, 32.838437)" fill="none" stroke-linejoin="miter" d="M 0.496661 0.00170328 L 54.53072 0.00170328 " stroke="#ffffff" stroke-width="1" stroke-opacity="1" stroke-miterlimit="4"/><path stroke-linecap="round" transform="matrix(0.000000000000000616, -0.335364, 0.335555, 0.000000000000000617, 35.632167, 32.647064)" fill="none" stroke-linejoin="miter" d="M 0.49676 0.00192493 L 54.530818 0.00192493 " stroke="#ffffff" stroke-width="1" stroke-opacity="1" stroke-miterlimit="4"/><path stroke-linecap="butt" transform="matrix(0.00000000000000002, -0.328002, 0.335555, 0.000000000000000021, 7.845189, 10.025655)" fill="none" stroke-linejoin="miter" d="M -0.00514891 -0.0042871 L 19.442607 -0.0042871 " stroke="#ffffff" stroke-width="1" stroke-opacity="1" stroke-miterlimit="4"/><g fill="#ffffff" fill-opacity="1"><g transform="translate(23.817088, 21.257591)"><g><path d="M 5.648438 -1.710938 C 5.578125 -1.789062 5.460938 -1.796875 5.382812 -1.726562 C 5.367188 -1.71875 3.894531 -0.429688 2.8125 -0.601562 C 2.492188 -0.652344 2.210938 -0.84375 2.054688 -1.132812 C 1.917969 -1.382812 1.667969 -1.539062 1.390625 -1.566406 C 1.039062 -1.589844 0.652344 -1.382812 0.242188 -0.953125 C 0.222656 -0.929688 0.1875 -0.921875 0.15625 -0.9375 C 0.128906 -0.953125 0.113281 -0.980469 0.121094 -1.015625 C 0.144531 -1.152344 0.207031 -1.496094 0.234375 -1.625 C 0.234375 -1.601562 0.285156 -1.703125 0.285156 -1.710938 C 0.894531 -2.542969 2.714844 -5.175781 2.003906 -6.019531 C 1.910156 -6.148438 1.738281 -6.207031 1.582031 -6.164062 C 1.4375 -6.121094 1.003906 -5.984375 0.328125 -3.59375 C 0.164062 -3.015625 0.015625 -2.390625 -0.105469 -1.804688 L -0.15625 -1.738281 C -0.207031 -1.675781 -0.207031 -1.589844 -0.164062 -1.519531 C -0.273438 -0.988281 -0.34375 -0.5 -0.378906 -0.128906 C -0.386719 -0.0429688 -0.335938 0.0351562 -0.257812 0.0625 C -0.179688 0.09375 -0.0859375 0.0625 -0.0351562 -0.0078125 C 0.695312 -1.066406 1.160156 -1.203125 1.367188 -1.195312 C 1.519531 -1.179688 1.652344 -1.089844 1.726562 -0.953125 C 1.941406 -0.566406 2.320312 -0.292969 2.761719 -0.230469 C 4.007812 -0.0351562 5.5625 -1.390625 5.632812 -1.445312 C 5.707031 -1.519531 5.710938 -1.632812 5.648438 -1.710938 Z M 1.6875 -5.804688 C 1.703125 -5.804688 1.710938 -5.785156 1.71875 -5.777344 C 2.0625 -5.390625 0.636719 -2.511719 0.457031 -2.628906 C 0.285156 -2.734375 1.390625 -5.804688 1.6875 -5.804688 Z M 1.6875 -5.804688 "/></g></g></g><g fill="#ffffff" fill-opacity="1"><g transform="translate(29.228957, 21.257591)"><g><path d="M 5.21875 -2.03125 C 5.183594 -2.070312 5.140625 -2.082031 5.089844 -2.082031 C 5.039062 -2.082031 4.988281 -2.070312 4.953125 -2.03125 C 4.09375 -1.175781 2.878906 -0.78125 1.683594 -0.980469 C 1.589844 -1.003906 1.523438 -1.089844 1.539062 -1.179688 C 1.597656 -1.523438 1.566406 -1.875 1.367188 -1.988281 C 1.238281 -2.0625 1.046875 -2.070312 0.816406 -1.683594 C 0.730469 -1.554688 0.703125 -1.394531 0.730469 -1.246094 C 0.765625 -1.09375 0.859375 -0.960938 0.988281 -0.878906 C 1.066406 -0.816406 0.972656 -0.707031 0.921875 -0.660156 C 0.789062 -0.492188 0.550781 -0.464844 0.386719 -0.59375 C 0.179688 -0.6875 0.0859375 -0.917969 0.164062 -1.125 C 0.257812 -1.503906 0.628906 -1.832031 0.765625 -1.832031 C 0.867188 -1.832031 0.953125 -1.917969 0.953125 -2.019531 C 0.960938 -2.117188 0.875 -2.203125 0.773438 -2.210938 L 0.765625 -2.210938 C 0.40625 -2.210938 -0.0703125 -1.726562 -0.199219 -1.21875 C -0.320312 -0.84375 -0.148438 -0.4375 0.207031 -0.265625 C 0.34375 -0.1875 0.492188 -0.148438 0.652344 -0.144531 C 0.960938 -0.15625 1.230469 -0.34375 1.359375 -0.628906 C 1.375 -0.652344 1.410156 -0.664062 1.4375 -0.660156 C 2.347656 -0.386719 4.007812 -0.558594 5.21875 -1.761719 C 5.253906 -1.796875 5.277344 -1.847656 5.277344 -1.898438 C 5.277344 -1.945312 5.253906 -1.996094 5.21875 -2.03125 Z M 1.167969 -1.21875 C 1.089844 -1.289062 1.074219 -1.402344 1.136719 -1.488281 C 1.160156 -1.523438 1.175781 -1.546875 1.1875 -1.566406 C 1.195312 -1.453125 1.1875 -1.332031 1.167969 -1.21875 Z M 1.167969 -1.21875 "/></g></g></g><g fill="#ffffff" fill-opacity="1"><g transform="translate(34.175514, 21.257591)"><g><path d="M 6.207031 -2.011719 C 6.171875 -2.046875 6.121094 -2.0625 6.070312 -2.0625 C 6.019531 -2.0625 5.976562 -2.039062 5.941406 -2.003906 C 5.296875 -1.324219 3.851562 -0.328125 2.792969 -0.328125 L 2.777344 -0.328125 C 2.484375 -0.316406 2.203125 -0.429688 2.003906 -0.636719 C 1.746094 -0.917969 1.925781 -1.675781 2.011719 -1.917969 C 2.046875 -2.011719 2.003906 -2.113281 1.917969 -2.148438 C 1.839844 -2.191406 1.730469 -2.167969 1.683594 -2.089844 C 1.132812 -1.289062 0.34375 -0.507812 0.0859375 -0.660156 C 0 -0.714844 0.128906 -1.265625 0.480469 -1.890625 C 0.523438 -1.976562 0.492188 -2.082031 0.40625 -2.132812 C 0.320312 -2.183594 0.207031 -2.160156 0.15625 -2.074219 C -0.0859375 -1.652344 -0.59375 -0.628906 -0.105469 -0.335938 C 0.277344 -0.105469 0.800781 -0.480469 1.238281 -0.929688 C 1.28125 -0.980469 1.347656 -0.996094 1.402344 -0.972656 C 1.460938 -0.960938 1.503906 -0.910156 1.519531 -0.84375 C 1.539062 -0.671875 1.609375 -0.515625 1.726562 -0.378906 C 1.996094 -0.09375 2.375 0.0625 2.769531 0.0507812 L 2.792969 0.0507812 C 3.972656 0.0507812 5.503906 -0.996094 6.214844 -1.738281 C 6.25 -1.78125 6.265625 -1.824219 6.265625 -1.875 C 6.265625 -1.925781 6.242188 -1.976562 6.207031 -2.011719 Z M 6.207031 -2.011719 "/></g></g></g><g fill="#ffffff" fill-opacity="1"><g transform="translate(40.09564, 21.257591)"><g><path d="M 4.910156 -1.984375 C 4.875 -2.019531 4.832031 -2.03125 4.78125 -2.03125 C 4.730469 -2.03125 4.683594 -2.019531 4.644531 -1.984375 C 3.957031 -1.332031 3.113281 -0.875 2.191406 -0.652344 C 2.15625 -0.636719 2.113281 -0.652344 2.089844 -0.679688 C 2.070312 -0.714844 2.0625 -0.75 2.082031 -0.789062 C 2.210938 -1.039062 2.183594 -1.339844 2.019531 -1.566406 C 1.917969 -1.703125 1.789062 -1.816406 1.640625 -1.902344 C 1.4375 -2.039062 1.21875 -2.199219 1.210938 -2.363281 C 1.21875 -2.457031 1.253906 -2.542969 1.316406 -2.613281 L 1.703125 -2.976562 C 1.773438 -3.050781 1.78125 -3.164062 1.71875 -3.234375 C 1.652344 -3.3125 1.546875 -3.328125 1.460938 -3.265625 C 1.308594 -3.148438 1.167969 -3.019531 1.046875 -2.871094 L -0.0585938 -1.839844 C -0.105469 -1.796875 -0.128906 -1.726562 -0.113281 -1.660156 C -0.101562 -1.589844 -0.0507812 -1.539062 0.015625 -1.519531 C 0.078125 -1.503906 0.148438 -1.519531 0.199219 -1.566406 L 0.746094 -2.074219 C 0.773438 -2.105469 0.808594 -2.113281 0.84375 -2.113281 C 0.878906 -2.105469 0.910156 -2.082031 0.921875 -2.054688 C 1.058594 -1.867188 1.230469 -1.710938 1.425781 -1.597656 C 1.53125 -1.53125 1.625 -1.460938 1.703125 -1.367188 C 1.773438 -1.289062 1.8125 -1.179688 1.789062 -1.074219 C 1.769531 -0.964844 1.703125 -0.875 1.609375 -0.824219 C 1.152344 -0.566406 0.574219 -0.6875 0.257812 -1.109375 C 0.207031 -1.1875 0.09375 -1.21875 0.0078125 -1.160156 C -0.078125 -1.109375 -0.105469 -1.003906 -0.0585938 -0.910156 C 0.179688 -0.5 0.601562 -0.234375 1.074219 -0.199219 C 1.195312 -0.179688 1.308594 -0.171875 1.433594 -0.171875 C 2.640625 -0.171875 4.128906 -0.929688 4.910156 -1.71875 C 4.980469 -1.789062 4.980469 -1.910156 4.910156 -1.984375 Z M 4.910156 -1.984375 "/></g></g></g><g fill="#ffffff" fill-opacity="1"><g transform="translate(44.720069, 21.257591)"><g><path d="M 6.007812 -1.839844 C 5.96875 -1.875 5.925781 -1.902344 5.878906 -1.902344 C 5.828125 -1.910156 5.777344 -1.898438 5.742188 -1.867188 C 5.710938 -1.847656 2.957031 0.34375 0.660156 -0.601562 C 0.191406 -0.792969 0.171875 -1.046875 0.1875 -1.179688 C 0.1875 -1.203125 0.191406 -1.222656 0.214844 -1.238281 C 0.230469 -1.253906 0.257812 -1.253906 0.277344 -1.246094 C 0.746094 -1.21875 1.210938 -1.339844 1.609375 -1.589844 C 1.953125 -1.8125 2.011719 -2.054688 1.988281 -2.210938 C 1.976562 -2.46875 1.769531 -2.675781 1.503906 -2.683594 C 0.9375 -2.714844 -0.0078125 -2.039062 -0.164062 -1.324219 C -0.230469 -1.058594 -0.222656 -0.558594 0.515625 -0.257812 C 0.964844 -0.0703125 1.4375 0.015625 1.917969 0.015625 C 3.972656 0.015625 5.878906 -1.496094 5.976562 -1.574219 C 6.011719 -1.601562 6.042969 -1.652344 6.042969 -1.695312 C 6.050781 -1.746094 6.035156 -1.796875 6.007812 -1.839844 Z M 0.445312 -1.683594 C 0.722656 -2.070312 1.1875 -2.328125 1.480469 -2.304688 C 1.5625 -2.304688 1.601562 -2.277344 1.617188 -2.167969 C 1.625 -2.097656 1.546875 -1.996094 1.402344 -1.902344 C 1.109375 -1.710938 0.230469 -1.394531 0.445312 -1.683594 Z M 0.445312 -1.683594 "/></g></g></g><g fill="#ffffff" fill-opacity="1"><g transform="translate(50.454067, 21.257591)"><g><path d="M 4.910156 -1.945312 C 4.839844 -2.019531 4.71875 -2.019531 4.644531 -1.941406 C 4.632812 -1.925781 2.691406 0.0273438 1.402344 -0.457031 C 0.832031 -0.679688 0.585938 -1.347656 0.492188 -2.003906 C 0.621094 -2.320312 0.835938 -2.84375 1.039062 -3.429688 C 1.058594 -3.5 1.082031 -3.507812 1.167969 -3.515625 C 2.132812 -3.585938 3.09375 -3.621094 3.65625 -3.621094 C 3.765625 -3.621094 3.84375 -3.707031 3.84375 -3.808594 C 3.84375 -3.914062 3.765625 -3.996094 3.65625 -3.996094 C 3.113281 -3.996094 2.21875 -3.953125 1.304688 -3.902344 C 1.265625 -3.894531 1.203125 -3.914062 1.253906 -4.042969 C 1.597656 -5.023438 1.839844 -6.019531 1.6875 -6.320312 C 1.539062 -6.621094 1.339844 -6.628906 1.238281 -6.605469 C 0.707031 -6.507812 0.320312 -5.132812 0.148438 -4.007812 C 0.136719 -3.910156 0.0859375 -3.824219 -0.0078125 -3.816406 C -1.132812 -3.730469 -2.054688 -3.664062 -2.070312 -3.664062 C -2.175781 -3.65625 -2.253906 -3.570312 -2.246094 -3.464844 C -2.246094 -3.363281 -2.160156 -3.277344 -2.054688 -3.285156 L -2.039062 -3.285156 C -2.019531 -3.285156 -1.152344 -3.351562 -0.0703125 -3.429688 C -0.0351562 -3.4375 0 -3.429688 0.0273438 -3.398438 C 0.0585938 -3.378906 0.078125 -3.34375 0.078125 -3.308594 C -0.0273438 -1.601562 0.402344 -0.4375 1.265625 -0.105469 C 1.453125 -0.0429688 1.644531 -0.0078125 1.847656 -0.0078125 C 3.265625 -0.0078125 4.839844 -1.601562 4.917969 -1.675781 C 4.953125 -1.710938 4.96875 -1.761719 4.96875 -1.8125 C 4.96875 -1.859375 4.945312 -1.910156 4.910156 -1.945312 Z M 0.53125 -4.023438 C 0.695312 -5.109375 1.023438 -5.96875 1.21875 -6.191406 C 1.238281 -6.207031 1.265625 -6.214844 1.296875 -6.207031 C 1.316406 -6.199219 1.339844 -6.183594 1.351562 -6.15625 C 1.4375 -5.96875 1.195312 -5.0625 0.832031 -3.980469 C 0.816406 -3.914062 0.765625 -3.867188 0.695312 -3.859375 C 0.660156 -3.851562 0.621094 -3.851562 0.578125 -3.851562 C 0.507812 -3.851562 0.523438 -3.964844 0.53125 -4.015625 Z M 0.445312 -2.898438 C 0.371094 -2.898438 0.402344 -3.398438 0.464844 -3.472656 C 0.523438 -3.507812 0.59375 -3.515625 0.652344 -3.480469 C 0.714844 -3.421875 0.523438 -2.898438 0.445312 -2.898438 Z M 0.445312 -2.898438 "/></g></g></g><g fill="#ffffff" fill-opacity="1"><g transform="translate(55.028386, 21.257591)"><g><path d="M 4.640625 -1.933594 C 4.558594 -2.003906 4.445312 -2.003906 4.375 -1.925781 C 4.34375 -1.902344 2.027344 0.457031 0.488281 -0.664062 C 0.015625 -1.007812 0.472656 -1.902344 0.480469 -1.910156 C 0.523438 -2.003906 0.488281 -2.113281 0.394531 -2.160156 C 0.300781 -2.203125 0.191406 -2.175781 0.144531 -2.082031 C 0.113281 -2.039062 -0.464844 -0.902344 0.265625 -0.363281 C 0.601562 -0.113281 1.015625 0.0195312 1.4375 0.015625 C 2.984375 0.015625 4.554688 -1.582031 4.640625 -1.667969 C 4.675781 -1.703125 4.695312 -1.746094 4.695312 -1.796875 C 4.6875 -1.847656 4.675781 -1.898438 4.640625 -1.933594 Z M 0.0625 -2.5 C 0.09375 -2.5 0.121094 -2.503906 0.148438 -2.519531 C 0.320312 -2.605469 0.472656 -2.71875 0.609375 -2.855469 C 0.679688 -2.933594 0.671875 -3.050781 0.601562 -3.121094 C 0.523438 -3.191406 0.40625 -3.191406 0.335938 -3.113281 C 0.230469 -3.007812 0.105469 -2.921875 -0.0273438 -2.847656 C -0.101562 -2.8125 -0.144531 -2.71875 -0.121094 -2.640625 C -0.101562 -2.554688 -0.0195312 -2.5 0.0625 -2.5 Z M 0.0625 -2.5 "/></g></g></g><g fill="#ffffff" fill-opacity="1"><g transform="translate(59.423742, 21.257591)"><g><path d="M 6.257812 -1.78125 C 6.214844 -1.8125 6.171875 -1.832031 6.121094 -1.832031 C 6.070312 -1.824219 6.019531 -1.804688 5.992188 -1.769531 C 5.96875 -1.753906 4.394531 -0.0703125 3.027344 -0.621094 C 2.734375 -0.78125 2.5 -1.015625 2.332031 -1.308594 C 2.277344 -1.402344 2.203125 -1.496094 2.117188 -1.582031 C 2.027344 -1.695312 1.882812 -1.761719 1.730469 -1.769531 C 1.367188 -1.796875 0.921875 -1.554688 0.394531 -1.050781 C 0.378906 -1.039062 0.359375 -1.03125 0.335938 -1.046875 C 0.316406 -1.050781 0.300781 -1.082031 0.308594 -1.101562 L 0.464844 -1.804688 C 0.492188 -1.902344 0.429688 -2.011719 0.328125 -2.03125 C 0.230469 -2.054688 0.128906 -1.988281 0.101562 -1.890625 L -0.257812 -0.320312 C -0.277344 -0.234375 -0.234375 -0.148438 -0.15625 -0.113281 C -0.078125 -0.0703125 0.015625 -0.09375 0.0703125 -0.15625 C 1.03125 -1.28125 1.519531 -1.390625 1.6875 -1.394531 C 1.859375 -1.402344 1.96875 -1.179688 2.027344 -1.09375 C 2.226562 -0.746094 2.527344 -0.457031 2.886719 -0.277344 C 4.488281 0.371094 6.191406 -1.4375 6.265625 -1.519531 C 6.335938 -1.589844 6.328125 -1.710938 6.257812 -1.78125 Z M 6.257812 -1.78125 "/></g></g></g><g fill="#ffffff" fill-opacity="1"><g transform="translate(65.386813, 21.257591)"><g><path d="M 4.980469 -1.882812 C 4.902344 -1.953125 4.78125 -1.945312 4.71875 -1.867188 C 4.152344 -1.28125 3.234375 -1.222656 2.605469 -1.730469 C 2.457031 -1.839844 2.246094 -1.832031 2.113281 -1.703125 C 2.03125 -1.632812 1.945312 -1.554688 1.859375 -1.460938 C 1.589844 -1.152344 1.539062 -1.410156 1.539062 -1.582031 C 1.539062 -1.730469 1.511719 -1.890625 1.460938 -2.03125 C 1.433594 -2.105469 1.359375 -2.15625 1.28125 -2.15625 C 1.203125 -2.148438 1.136719 -2.105469 1.109375 -2.027344 C 0.910156 -1.46875 0.480469 -0.652344 0.179688 -0.59375 C 0.15625 -0.585938 0.101562 -0.578125 0.015625 -0.671875 C -0.0273438 -0.859375 0 -1.058594 0.09375 -1.230469 C 0.308594 -1.8125 0.835938 -2.21875 1.453125 -2.277344 C 1.5625 -2.285156 1.640625 -2.375 1.632812 -2.476562 C 1.625 -2.585938 1.53125 -2.664062 1.433594 -2.65625 C 0.664062 -2.585938 0.0078125 -2.082031 -0.265625 -1.359375 C -0.386719 -1.046875 -0.457031 -0.628906 -0.265625 -0.421875 C -0.136719 -0.265625 0.0585938 -0.191406 0.25 -0.230469 C 0.609375 -0.300781 0.929688 -0.773438 1.160156 -1.203125 C 1.144531 -1.03125 1.125 -0.835938 1.09375 -0.636719 C 1.089844 -0.59375 1.074219 -0.558594 1.050781 -0.53125 C 0.214844 0.53125 -0.542969 1.8125 -0.558594 2.621094 C -0.578125 2.835938 -0.5 3.050781 -0.359375 3.207031 C -0.285156 3.277344 -0.199219 3.3125 -0.105469 3.3125 C -0.0273438 3.3125 0.0507812 3.292969 0.113281 3.25 C 0.585938 2.933594 1.1875 1.09375 1.425781 -0.363281 C 1.433594 -0.394531 1.445312 -0.421875 1.46875 -0.449219 C 1.71875 -0.757812 1.984375 -1.050781 2.261719 -1.332031 C 2.328125 -1.394531 2.425781 -1.402344 2.5 -1.351562 C 3.285156 -0.824219 4.332031 -0.9375 4.988281 -1.617188 C 5.054688 -1.695312 5.054688 -1.8125 4.980469 -1.882812 Z M 0.214844 2.492188 C 0.0507812 2.820312 -0.0078125 2.964844 -0.09375 2.933594 C -0.179688 2.914062 -0.1875 2.769531 -0.179688 2.628906 C -0.164062 2.074219 0.792969 0.207031 0.929688 0.265625 C 1.066406 0.320312 0.488281 1.925781 0.214844 2.492188 Z M 0.214844 2.492188 "/></g></g></g><g fill="#ffffff" fill-opacity="1"><g transform="translate(70.104297, 21.257591)"><g><path d="M 6.007812 -1.839844 C 5.96875 -1.875 5.925781 -1.902344 5.878906 -1.902344 C 5.828125 -1.910156 5.777344 -1.898438 5.742188 -1.867188 C 5.710938 -1.847656 2.957031 0.34375 0.660156 -0.601562 C 0.191406 -0.792969 0.171875 -1.046875 0.1875 -1.179688 C 0.1875 -1.203125 0.191406 -1.222656 0.214844 -1.238281 C 0.230469 -1.253906 0.257812 -1.253906 0.277344 -1.246094 C 0.746094 -1.21875 1.210938 -1.339844 1.609375 -1.589844 C 1.953125 -1.8125 2.011719 -2.054688 1.988281 -2.210938 C 1.976562 -2.46875 1.769531 -2.675781 1.503906 -2.683594 C 0.9375 -2.714844 -0.0078125 -2.039062 -0.164062 -1.324219 C -0.230469 -1.058594 -0.222656 -0.558594 0.515625 -0.257812 C 0.964844 -0.0703125 1.4375 0.015625 1.917969 0.015625 C 3.972656 0.015625 5.878906 -1.496094 5.976562 -1.574219 C 6.011719 -1.601562 6.042969 -1.652344 6.042969 -1.695312 C 6.050781 -1.746094 6.035156 -1.796875 6.007812 -1.839844 Z M 0.445312 -1.683594 C 0.722656 -2.070312 1.1875 -2.328125 1.480469 -2.304688 C 1.5625 -2.304688 1.601562 -2.277344 1.617188 -2.167969 C 1.625 -2.097656 1.546875 -1.996094 1.402344 -1.902344 C 1.109375 -1.710938 0.230469 -1.394531 0.445312 -1.683594 Z M 0.445312 -1.683594 "/></g></g></g><g fill="#ffffff" fill-opacity="1"><g transform="translate(75.838295, 21.257591)"><g><path d="M 6.171875 -1.882812 C 6.136719 -1.917969 6.09375 -1.941406 6.042969 -1.941406 C 5.992188 -1.941406 5.941406 -1.917969 5.90625 -1.882812 C 4.667969 -0.671875 2.46875 -0.414062 1.996094 -0.695312 C 1.675781 -0.878906 1.710938 -1.101562 1.941406 -1.546875 C 2.046875 -1.761719 2.167969 -2.011719 1.960938 -2.160156 C 1.769531 -2.304688 1.582031 -2.210938 1.417969 -2.125 C 1.179688 -1.988281 0.917969 -1.917969 0.636719 -1.917969 C 0.574219 -1.917969 0.515625 -2.03125 0.53125 -2.074219 C 0.929688 -2.957031 0.75 -3.121094 0.6875 -3.183594 C 0.578125 -3.292969 0.414062 -3.285156 0.214844 -3.164062 C -0.113281 -2.929688 -0.257812 -2.503906 -0.144531 -2.113281 C -0.113281 -2.003906 -0.0625 -1.902344 0.0078125 -1.816406 C 0 -1.738281 0.0351562 -1.667969 0.105469 -1.632812 C 0.148438 -1.609375 0.199219 -1.609375 0.25 -1.625 C 0.371094 -1.566406 0.507812 -1.539062 0.644531 -1.539062 C 0.9375 -1.53125 1.222656 -1.597656 1.480469 -1.738281 C 1.582031 -1.789062 1.617188 -1.746094 1.601562 -1.71875 C 1.433594 -1.382812 1.125 -0.765625 1.8125 -0.363281 C 2.054688 -0.25 2.328125 -0.199219 2.597656 -0.222656 C 3.601562 -0.222656 5.175781 -0.652344 6.164062 -1.617188 C 6.199219 -1.644531 6.222656 -1.695312 6.222656 -1.746094 C 6.226562 -1.796875 6.207031 -1.847656 6.171875 -1.882812 Z M 0.207031 -2.277344 C 0.164062 -2.484375 0.234375 -2.699219 0.402344 -2.835938 C 0.351562 -2.640625 0.285156 -2.457031 0.207031 -2.269531 Z M 0.207031 -2.277344 "/></g></g></g><g fill="#ffffff" fill-opacity="1"><g transform="translate(38.478231, 26.28818)"><g><path d="M 2 -2 L 2 0 L 1.796875 0 L 1.796875 -0.921875 L 0.53125 -0.921875 L 0.53125 0 L 0.328125 0 L 0.328125 -2 L 0.53125 -2 L 0.53125 -1.109375 L 1.796875 -1.109375 L 1.796875 -2 Z M 2 -2 "/></g></g></g><g fill="#ffffff" fill-opacity="1"><g transform="translate(41.502293, 26.28818)"><g><path d="M 1.203125 0.015625 C 1.003906 0.015625 0.820312 -0.0234375 0.65625 -0.109375 C 0.5 -0.203125 0.375 -0.328125 0.28125 -0.484375 C 0.195312 -0.640625 0.15625 -0.8125 0.15625 -1 C 0.15625 -1.195312 0.195312 -1.367188 0.28125 -1.515625 C 0.375 -1.671875 0.5 -1.789062 0.65625 -1.875 C 0.820312 -1.96875 1.003906 -2.015625 1.203125 -2.015625 C 1.398438 -2.015625 1.578125 -1.96875 1.734375 -1.875 C 1.890625 -1.789062 2.015625 -1.671875 2.109375 -1.515625 C 2.203125 -1.367188 2.25 -1.195312 2.25 -1 C 2.25 -0.8125 2.203125 -0.640625 2.109375 -0.484375 C 2.015625 -0.328125 1.890625 -0.203125 1.734375 -0.109375 C 1.578125 -0.0234375 1.398438 0.015625 1.203125 0.015625 Z M 1.203125 -0.171875 C 1.359375 -0.171875 1.5 -0.207031 1.625 -0.28125 C 1.757812 -0.351562 1.859375 -0.453125 1.921875 -0.578125 C 1.992188 -0.703125 2.03125 -0.84375 2.03125 -1 C 2.03125 -1.15625 1.992188 -1.296875 1.921875 -1.421875 C 1.859375 -1.546875 1.757812 -1.644531 1.625 -1.71875 C 1.5 -1.789062 1.359375 -1.828125 1.203125 -1.828125 C 1.046875 -1.828125 0.898438 -1.789062 0.765625 -1.71875 C 0.640625 -1.644531 0.539062 -1.546875 0.46875 -1.421875 C 0.394531 -1.296875 0.359375 -1.15625 0.359375 -1 C 0.359375 -0.84375 0.394531 -0.703125 0.46875 -0.578125 C 0.539062 -0.453125 0.640625 -0.351562 0.765625 -0.28125 C 0.898438 -0.207031 1.046875 -0.171875 1.203125 -0.171875 Z M 1.203125 -0.171875 "/></g></g></g><g fill="#ffffff" fill-opacity="1"><g transform="translate(44.60081, 26.28818)"><g><path d="M 2.40625 -2 L 2.40625 0 L 2.203125 0 L 2.203125 -1.59375 L 1.421875 -0.25 L 1.3125 -0.25 L 0.53125 -1.59375 L 0.53125 0 L 0.328125 0 L 0.328125 -2 L 0.5 -2 L 1.375 -0.515625 L 2.234375 -2 Z M 2.40625 -2 "/></g></g></g><g fill="#ffffff" fill-opacity="1"><g transform="translate(48.031518, 26.28818)"><g><path d="M 1.734375 -0.1875 L 1.734375 0 L 0.328125 0 L 0.328125 -2 L 1.703125 -2 L 1.703125 -1.8125 L 0.53125 -1.8125 L 0.53125 -1.109375 L 1.578125 -1.109375 L 1.578125 -0.921875 L 0.53125 -0.921875 L 0.53125 -0.1875 Z M 1.734375 -0.1875 "/></g></g></g><g fill="#ffffff" fill-opacity="1"><g transform="translate(50.643207, 26.28818)"><g/></g></g><g fill="#ffffff" fill-opacity="1"><g transform="translate(52.089372, 26.28818)"><g><path d="M 1.734375 -0.1875 L 1.734375 0 L 0.328125 0 L 0.328125 -2 L 1.703125 -2 L 1.703125 -1.8125 L 0.53125 -1.8125 L 0.53125 -1.109375 L 1.578125 -1.109375 L 1.578125 -0.921875 L 0.53125 -0.921875 L 0.53125 -0.1875 Z M 1.734375 -0.1875 "/></g></g></g><g fill="#ffffff" fill-opacity="1"><g transform="translate(54.701062, 26.28818)"><g><path d="M 1.578125 0 L 0.9375 -0.875 L 0.296875 0 L 0.046875 0 L 0.8125 -1.03125 L 0.09375 -2 L 0.34375 -2 L 0.9375 -1.1875 L 1.546875 -2 L 1.765625 -2 L 1.0625 -1.03125 L 1.828125 0 Z M 1.578125 0 "/></g></g></g><g fill="#ffffff" fill-opacity="1"><g transform="translate(57.275522, 26.28818)"><g><path d="M 1.078125 -2 C 1.328125 -2 1.523438 -1.9375 1.671875 -1.8125 C 1.816406 -1.695312 1.890625 -1.53125 1.890625 -1.3125 C 1.890625 -1.101562 1.816406 -0.9375 1.671875 -0.8125 C 1.523438 -0.6875 1.328125 -0.625 1.078125 -0.625 L 0.53125 -0.625 L 0.53125 0 L 0.328125 0 L 0.328125 -2 Z M 1.0625 -0.8125 C 1.257812 -0.8125 1.410156 -0.851562 1.515625 -0.9375 C 1.628906 -1.03125 1.6875 -1.15625 1.6875 -1.3125 C 1.6875 -1.476562 1.628906 -1.601562 1.515625 -1.6875 C 1.410156 -1.769531 1.257812 -1.8125 1.0625 -1.8125 L 0.53125 -1.8125 L 0.53125 -0.8125 Z M 1.0625 -0.8125 "/></g></g></g><g fill="#ffffff" fill-opacity="1"><g transform="translate(60.027532, 26.28818)"><g><path d="M 1.734375 -0.1875 L 1.734375 0 L 0.328125 0 L 0.328125 -2 L 1.703125 -2 L 1.703125 -1.8125 L 0.53125 -1.8125 L 0.53125 -1.109375 L 1.578125 -1.109375 L 1.578125 -0.921875 L 0.53125 -0.921875 L 0.53125 -0.1875 Z M 1.734375 -0.1875 "/></g></g></g><g fill="#ffffff" fill-opacity="1"><g transform="translate(62.639221, 26.28818)"><g><path d="M 1.6875 0 L 1.234375 -0.640625 C 1.179688 -0.640625 1.128906 -0.640625 1.078125 -0.640625 L 0.53125 -0.640625 L 0.53125 0 L 0.328125 0 L 0.328125 -2 L 1.078125 -2 C 1.328125 -2 1.523438 -1.9375 1.671875 -1.8125 C 1.816406 -1.695312 1.890625 -1.53125 1.890625 -1.3125 C 1.890625 -1.15625 1.847656 -1.019531 1.765625 -0.90625 C 1.691406 -0.800781 1.582031 -0.726562 1.4375 -0.6875 L 1.921875 0 Z M 1.0625 -0.8125 C 1.257812 -0.8125 1.410156 -0.851562 1.515625 -0.9375 C 1.628906 -1.03125 1.6875 -1.15625 1.6875 -1.3125 C 1.6875 -1.476562 1.628906 -1.601562 1.515625 -1.6875 C 1.410156 -1.769531 1.257812 -1.8125 1.0625 -1.8125 L 0.53125 -1.8125 L 0.53125 -0.8125 Z M 1.0625 -0.8125 "/></g></g></g><g fill="#ffffff" fill-opacity="1"><g transform="translate(65.405549, 26.28818)"><g><path d="M 0.71875 -1.8125 L 0.015625 -1.8125 L 0.015625 -2 L 1.625 -2 L 1.625 -1.8125 L 0.921875 -1.8125 L 0.921875 0 L 0.71875 0 Z M 0.71875 -1.8125 "/></g></g></g></svg>